<svg width="140" height="28" viewBox="0 0 140 28" fill="none" xmlns="http://www.w3.org/2000/svg">
<path d="M1.23182 26.0535C0.397823 25.0805 -0.01918 24.0082 0.000677178 22.8366C0.0205343 21.6651 0.516963 20.6524 1.48996 19.8184L6.81168 15.2711C8.34068 13.9406 8.45983 12.5109 7.1294 10.9819L3.67425 6.95093C2.87997 6.0375 2.52254 5.02478 2.60197 3.93264C2.68139 2.8405 3.17782 1.88735 4.11111 1.09307C5.0444 0.29878 6.03725 -0.0586487 7.1294 0.0207799C8.22154 0.100209 9.17469 0.596637 9.96897 1.52992L26.5298 20.7715C27.3638 21.7445 27.7411 22.7771 27.6617 23.8692C27.5823 24.9614 27.0858 25.9145 26.1526 26.7088C25.2391 27.5031 24.2264 27.8605 23.1343 27.7811C22.0421 27.7017 21.0691 27.1655 20.2351 26.1925L17.058 22.4991C15.7275 20.9701 14.2978 20.8509 12.7688 22.1814L7.44711 26.7287C6.47411 27.5627 5.42168 27.9201 4.26997 27.7811C3.11825 27.6421 2.1254 27.0662 1.23182 26.0535Z" fill="#4A154B"/>
<path d="M37.9477 27.6618C36.796 27.7015 35.7833 27.2448 34.8897 26.3313L29.985 21.3472C28.5751 19.8976 25.9341 16.8793 25.0803 16.0056C24.2264 15.1319 23.8094 14.1589 23.8293 13.0469C23.8491 11.9547 24.3058 10.942 25.2391 10.0485L34.3337 1.25174C35.2074 0.397881 36.2003 -0.0191192 37.2924 0.000737983C38.3846 0.0205951 39.3576 0.457452 40.2114 1.33117C41.0653 2.20488 41.4823 3.17788 41.4624 4.28988C41.4426 5.38203 41.0057 6.35503 40.132 7.20889L36.5577 10.6839C35.1081 12.0937 35.0883 13.5235 36.4981 14.9929L41.4028 19.977C42.2964 20.8905 42.7134 21.9429 42.6141 23.1145C42.5347 24.286 42.0184 25.3186 41.105 26.2122C40.1518 27.1455 39.0994 27.6419 37.9477 27.6618Z" fill="#4A154B"/>
<path d="M95.6327 9.33353C95.6327 8.51939 95.9107 7.84424 96.4469 7.32796C96.983 6.81167 97.678 6.55353 98.4922 6.55353C99.3063 6.55353 100.001 6.83153 100.537 7.36767C101.074 7.90381 101.352 8.5591 101.352 9.35339V18.5075C101.352 20.2748 100.895 21.784 99.9814 23.0151C99.068 24.2463 97.8964 25.1597 96.4667 25.7753C95.037 26.371 93.5279 26.6887 91.9194 26.6887C90.3706 26.6887 88.8614 26.3908 87.4317 25.7753C86.002 25.1795 84.8304 24.2463 83.8971 23.0151C82.9639 21.784 82.5071 20.2748 82.5071 18.5075V9.33353C82.5071 8.51939 82.7851 7.84424 83.3213 7.32796C83.8574 6.81167 84.5524 6.55353 85.3666 6.55353C86.1807 6.55353 86.8757 6.83153 87.4118 7.36767C87.948 7.90381 88.226 8.5591 88.226 9.35339V18.2494C88.226 19.1628 88.5636 19.9174 89.2586 20.5131C89.9536 21.1287 90.8471 21.4265 91.9194 21.4265C92.9917 21.4265 93.8853 21.1287 94.5803 20.5131C95.2753 19.9174 95.6129 19.143 95.6129 18.2494V9.33353H95.6327Z" fill="#4A154B"/>
<path d="M105.76 26.6688C105.025 26.6688 104.35 26.3908 103.754 25.8348C103.139 25.2788 102.841 24.6235 102.841 23.8888C102.841 23.1938 103.119 22.5385 103.675 21.9428L108.163 17.336C108.421 16.9984 108.56 16.6807 108.56 16.4225C108.56 16.085 108.421 15.7672 108.163 15.5091L103.615 10.9618C103.178 10.4058 102.96 9.82996 102.96 9.27396C102.96 8.53924 103.278 7.90381 103.933 7.36767C104.588 6.83153 105.303 6.55353 106.078 6.55353C106.892 6.55353 107.547 6.85138 108.024 7.46696L111.657 11.6767C111.916 11.9348 112.174 12.0738 112.432 12.0738C112.769 12.0738 113.028 11.9348 113.206 11.6767L116.781 7.46696C117.257 6.87124 117.912 6.55353 118.727 6.55353C119.501 6.55353 120.216 6.83153 120.871 7.36767C121.526 7.90381 121.844 8.5591 121.844 9.35339C121.844 9.86967 121.626 10.4058 121.189 10.9817L116.642 15.529C116.383 15.7871 116.244 16.085 116.244 16.4424C116.244 16.7005 116.383 16.9984 116.642 17.3558L121.129 21.9627C121.685 22.5783 121.963 23.2137 121.963 23.9087C121.963 24.6434 121.665 25.2987 121.05 25.8547C120.434 26.4107 119.779 26.6887 119.044 26.6887C118.27 26.6887 117.615 26.371 117.098 25.7157L113.206 21.1088C113.028 20.8507 112.769 20.7117 112.432 20.7117C112.174 20.7117 111.916 20.8507 111.657 21.1088L107.706 25.7157C107.408 26.0533 107.09 26.3114 106.773 26.4703C106.435 26.5894 106.097 26.6688 105.76 26.6688Z" fill="#4A154B"/>
<path d="M133.858 27.7013C131.991 27.7013 130.462 27.1652 129.251 26.0731C128.04 25.0008 127.424 23.3328 127.424 21.0691V14.0793C127.424 13.6425 127.206 13.424 126.769 13.424H125.796C125.021 13.424 124.426 13.1858 124.048 12.7092C123.651 12.2326 123.472 11.6369 123.472 10.8823C123.472 10.1079 123.671 9.47247 124.048 8.97604C124.445 8.47961 125.021 8.22147 125.796 8.22147H126.769C127.206 8.22147 127.424 8.00304 127.424 7.56618V2.78061C127.424 2.0459 127.682 1.41047 128.198 0.89418C128.715 0.377894 129.39 0.119751 130.204 0.119751C131.018 0.119751 131.713 0.377894 132.249 0.874323C132.785 1.37075 133.063 2.00618 133.063 2.78061V7.58604C133.063 8.0229 133.282 8.24133 133.719 8.24133H136.121C136.856 8.24133 137.472 8.49947 137.968 9.01576C138.465 9.53204 138.723 10.1675 138.723 10.9022C138.723 11.6369 138.465 12.2525 137.968 12.729C137.472 13.2056 136.836 13.4439 136.062 13.4439H133.719C133.282 13.4439 133.063 13.6623 133.063 14.0992V20.1755C133.063 20.9499 133.202 21.486 133.48 21.8038C133.758 22.1016 134.116 22.2605 134.553 22.2605C134.731 22.2605 135.069 22.2009 135.585 22.1016C136.102 22.0023 136.419 21.9428 136.558 21.9428C137.253 21.9428 137.829 22.2009 138.306 22.7172C138.782 23.2335 139.021 23.8689 139.021 24.6036C139.021 25.1596 138.862 25.6958 138.524 26.1525C138.206 26.6291 137.69 26.9666 136.995 27.1851C136.439 27.3638 135.883 27.4829 135.367 27.5822C134.89 27.6616 134.374 27.7013 133.858 27.7013Z" fill="#4A154B"/>
<path d="M52.3044 26.6688C51.4704 26.6688 50.7556 26.4305 50.1996 25.9341C49.6237 25.4575 49.3457 24.8419 49.3457 24.0873V9.09519C49.3457 8.40019 49.6237 7.78462 50.1797 7.28819C50.7357 6.79176 51.4506 6.53362 52.3243 6.53362C53.337 6.53362 54.1114 6.89105 54.6277 7.58605C54.8461 7.84419 54.9851 8.12219 55.0249 8.38033C55.561 7.72505 56.256 7.1889 57.1297 6.79176C58.0034 6.39462 58.9963 6.19604 60.1083 6.19604C63.1067 6.19604 65.2513 7.1889 66.5817 9.17462C67.376 8.20162 68.349 7.4669 69.4809 6.97047C70.6326 6.47405 71.8041 6.2159 73.0551 6.2159C75.5174 6.2159 77.4634 6.95062 78.8932 8.40019C80.3229 9.84976 81.0377 12.173 81.0377 15.3303V24.2462C81.0377 24.9412 80.7597 25.5369 80.2037 25.9936C79.6477 26.4503 78.9527 26.6886 78.1187 26.6886C77.2847 26.6886 76.5897 26.4503 76.0337 25.9539C75.4777 25.4773 75.1997 24.8618 75.1997 24.1072V16.0452C75.1997 14.4169 74.9217 13.2453 74.3459 12.5503C73.77 11.8553 72.9559 11.4979 71.9034 11.4979C70.851 11.4979 69.9972 11.8156 69.3617 12.451C68.7263 13.0865 68.2894 13.841 68.071 14.7346V24.2462C68.071 24.9412 67.793 25.5369 67.237 25.9936C66.681 26.4503 65.986 26.6886 65.152 26.6886C64.318 26.6886 63.623 26.4503 63.067 25.9539C62.511 25.4773 62.233 24.8618 62.233 24.1072V16.0452C62.233 14.4169 61.955 13.2453 61.3791 12.5503C60.8033 11.8553 59.9891 11.4979 58.9367 11.4979C57.924 11.4979 57.09 11.8156 56.4347 12.451C55.7794 13.0865 55.3426 13.8212 55.1043 14.6552V24.0278C55.1043 24.7823 54.8263 25.3979 54.2703 25.9142C53.7739 26.4106 53.0987 26.6688 52.3044 26.6688Z" fill="#4A154B"/>
</svg>
