<svg width="140" height="28" viewBox="0 0 140 28" fill="none" xmlns="http://www.w3.org/2000/svg">
<path d="M1.23182 26.1483C0.397823 25.1753 -0.01918 24.103 0.000677178 22.9315C0.0205343 21.7599 0.516963 20.7472 1.48996 19.9132L6.81168 15.3659C8.34068 14.0355 8.45983 12.6057 7.1294 11.0767L3.67425 7.04575C2.87997 6.13232 2.52254 5.1196 2.60197 4.02746C2.68139 2.93531 3.17782 1.98217 4.11111 1.18788C5.0444 0.393598 6.03725 0.0361694 7.1294 0.115598C8.22154 0.195027 9.17469 0.691455 9.96897 1.62474L26.5298 20.8663C27.3638 21.8393 27.7411 22.8719 27.6617 23.964C27.5823 25.0562 27.0858 26.0093 26.1526 26.8036C25.2391 27.5979 24.2264 27.9553 23.1343 27.8759C22.0421 27.7965 21.0691 27.2603 20.2351 26.2873L17.058 22.5939C15.7275 21.0649 14.2978 20.9458 12.7688 22.2762L7.44711 26.8235C6.47411 27.6575 5.42168 28.0149 4.26997 27.8759C3.11825 27.7369 2.1254 27.161 1.23182 26.1483Z" fill="white"/>
<path d="M37.9477 27.7566C36.796 27.7963 35.7833 27.3396 34.8897 26.4262L29.985 21.442C28.5752 19.9925 25.9342 16.9742 25.0803 16.1005C24.2264 15.2267 23.8094 14.2537 23.8293 13.1417C23.8491 12.0496 24.3059 11.0369 25.2391 10.1433L34.3337 1.34659C35.2074 0.49273 36.2003 0.0757295 37.2924 0.0955866C38.3846 0.115444 39.3576 0.552301 40.2114 1.42602C41.0653 2.29973 41.4823 3.27273 41.4624 4.38473C41.4426 5.47688 41.0057 6.44988 40.132 7.30373L36.5577 10.7787C35.1082 12.1886 35.0883 13.6183 36.4982 15.0877L41.4029 20.0719C42.2964 20.9853 42.7134 22.0377 42.6142 23.2093C42.5347 24.3809 42.0184 25.4135 41.105 26.307C40.1519 27.2403 39.0994 27.7367 37.9477 27.7566Z" fill="white"/>
<path d="M95.6327 9.42838C95.6327 8.61423 95.9107 7.93909 96.4469 7.42281C96.983 6.90652 97.678 6.64838 98.4922 6.64838C99.3063 6.64838 100.001 6.92638 100.537 7.46252C101.074 7.99866 101.352 8.65395 101.352 9.44824V18.6024C101.352 20.3697 100.895 21.8788 99.9814 23.11C99.068 24.3411 97.8964 25.2545 96.4667 25.8701C95.037 26.4658 93.5279 26.7835 91.9194 26.7835C90.3706 26.7835 88.8614 26.4857 87.4317 25.8701C86.002 25.2744 84.8304 24.3411 83.8971 23.11C82.9639 21.8788 82.5071 20.3697 82.5071 18.6024V9.42838C82.5071 8.61423 82.7851 7.93909 83.3213 7.42281C83.8574 6.90652 84.5524 6.64838 85.3666 6.64838C86.1807 6.64838 86.8757 6.92638 87.4118 7.46252C87.948 7.99866 88.226 8.65395 88.226 9.44824V18.3442C88.226 19.2577 88.5636 20.0122 89.2586 20.608C89.9536 21.2235 90.8471 21.5214 91.9194 21.5214C92.9917 21.5214 93.8853 21.2235 94.5803 20.608C95.2753 20.0122 95.6129 19.2378 95.6129 18.3442V9.42838H95.6327Z" fill="white"/>
<path d="M105.76 26.7637C105.025 26.7637 104.35 26.4857 103.754 25.9297C103.139 25.3737 102.841 24.7184 102.841 23.9837C102.841 23.2887 103.119 22.6334 103.675 22.0377L108.163 17.4308C108.421 17.0932 108.56 16.7755 108.56 16.5174C108.56 16.1798 108.421 15.8621 108.163 15.604L103.615 11.0567C103.178 10.5007 102.96 9.92481 102.96 9.36881C102.96 8.63409 103.278 7.99866 103.933 7.46252C104.588 6.92638 105.303 6.64838 106.078 6.64838C106.892 6.64838 107.547 6.94623 108.024 7.56181L111.657 11.7715C111.916 12.0297 112.174 12.1687 112.432 12.1687C112.769 12.1687 113.028 12.0297 113.206 11.7715L116.781 7.56181C117.257 6.96609 117.912 6.64838 118.727 6.64838C119.501 6.64838 120.216 6.92638 120.871 7.46252C121.526 7.99866 121.844 8.65395 121.844 9.44824C121.844 9.96452 121.626 10.5007 121.189 11.0765L116.642 15.6238C116.383 15.882 116.244 16.1798 116.244 16.5372C116.244 16.7954 116.383 17.0932 116.642 17.4507L121.129 22.0575C121.685 22.6731 121.963 23.3085 121.963 24.0035C121.963 24.7382 121.665 25.3935 121.05 25.9495C120.434 26.5055 119.779 26.7835 119.044 26.7835C118.27 26.7835 117.615 26.4658 117.098 25.8105L113.206 21.2037C113.028 20.9455 112.769 20.8065 112.432 20.8065C112.174 20.8065 111.916 20.9455 111.657 21.2037L107.706 25.8105C107.408 26.1481 107.09 26.4062 106.773 26.5651C106.435 26.6842 106.097 26.7637 105.76 26.7637Z" fill="white"/>
<path d="M133.858 27.7962C131.991 27.7962 130.462 27.2601 129.251 26.1679C128.04 25.0956 127.424 23.4276 127.424 21.1639V14.1742C127.424 13.7374 127.206 13.5189 126.769 13.5189H125.796C125.021 13.5189 124.426 13.2806 124.048 12.8041C123.651 12.3275 123.472 11.7318 123.472 10.9772C123.472 10.2028 123.671 9.56735 124.048 9.07092C124.445 8.57449 125.021 8.31635 125.796 8.31635H126.769C127.206 8.31635 127.424 8.09792 127.424 7.66106V2.87549C127.424 2.14077 127.682 1.50535 128.198 0.989059C128.715 0.472773 129.39 0.21463 130.204 0.21463C131.018 0.21463 131.713 0.472773 132.249 0.969202C132.785 1.46563 133.063 2.10106 133.063 2.87549V7.68092C133.063 8.11778 133.282 8.33621 133.719 8.33621H136.121C136.856 8.33621 137.472 8.59435 137.968 9.11064C138.465 9.62692 138.723 10.2624 138.723 10.9971C138.723 11.7318 138.465 12.3474 137.968 12.8239C137.472 13.3005 136.836 13.5388 136.062 13.5388H133.719C133.282 13.5388 133.063 13.7572 133.063 14.1941V20.2704C133.063 21.0448 133.202 21.5809 133.48 21.8986C133.758 22.1965 134.116 22.3554 134.553 22.3554C134.731 22.3554 135.069 22.2958 135.585 22.1965C136.102 22.0972 136.419 22.0376 136.558 22.0376C137.253 22.0376 137.829 22.2958 138.306 22.8121C138.782 23.3284 139.021 23.9638 139.021 24.6985C139.021 25.2545 138.862 25.7906 138.524 26.2474C138.206 26.7239 137.69 27.0615 136.995 27.2799C136.439 27.4586 135.883 27.5778 135.367 27.6771C134.89 27.7565 134.374 27.7962 133.858 27.7962Z" fill="white"/>
<path d="M52.3044 26.7637C51.4704 26.7637 50.7556 26.5254 50.1996 26.0289C49.6237 25.5524 49.3457 24.9368 49.3457 24.1822V9.19007C49.3457 8.49507 49.6237 7.8795 50.1797 7.38307C50.7357 6.88664 51.4506 6.6285 52.3243 6.6285C53.337 6.6285 54.1114 6.98592 54.6277 7.68092C54.8461 7.93907 54.9851 8.21707 55.0249 8.47521C55.561 7.81992 56.256 7.28378 57.1297 6.88664C58.0034 6.4895 58.9963 6.29092 60.1083 6.29092C63.1067 6.29092 65.2513 7.28378 66.5817 9.2695C67.376 8.2965 68.349 7.56178 69.4809 7.06535C70.6326 6.56892 71.8041 6.31078 73.0551 6.31078C75.5174 6.31078 77.4634 7.0455 78.8932 8.49507C80.3229 9.94464 81.0377 12.2679 81.0377 15.4252V24.3411C81.0377 25.0361 80.7597 25.6318 80.2037 26.0885C79.6477 26.5452 78.9527 26.7835 78.1187 26.7835C77.2847 26.7835 76.5897 26.5452 76.0337 26.0488C75.4777 25.5722 75.1997 24.9566 75.1997 24.2021V16.1401C75.1997 14.5118 74.9217 13.3402 74.3459 12.6452C73.77 11.9502 72.9559 11.5928 71.9034 11.5928C70.851 11.5928 69.9972 11.9105 69.3617 12.5459C68.7263 13.1814 68.2894 13.9359 68.071 14.8295V24.3411C68.071 25.0361 67.793 25.6318 67.237 26.0885C66.681 26.5452 65.986 26.7835 65.152 26.7835C64.318 26.7835 63.623 26.5452 63.067 26.0488C62.511 25.5722 62.233 24.9566 62.233 24.2021V16.1401C62.233 14.5118 61.955 13.3402 61.3791 12.6452C60.8033 11.9502 59.9891 11.5928 58.9367 11.5928C57.924 11.5928 57.09 11.9105 56.4347 12.5459C55.7794 13.1814 55.3426 13.9161 55.1043 14.7501V24.1226C55.1043 24.8772 54.8263 25.4928 54.2703 26.0091C53.7739 26.5055 53.0987 26.7637 52.3044 26.7637Z" fill="white"/>
</svg>
