<svg width="43" height="28" viewBox="0 0 43 28" fill="none" xmlns="http://www.w3.org/2000/svg">
<path d="M1.23182 26.0535C0.397823 25.0805 -0.01918 24.0082 0.000677178 22.8366C0.0205343 21.6651 0.516963 20.6524 1.48996 19.8184L6.81168 15.2711C8.34068 13.9406 8.45983 12.5109 7.1294 10.9819L3.67425 6.95093C2.87997 6.0375 2.52254 5.02478 2.60197 3.93264C2.68139 2.8405 3.17782 1.88735 4.11111 1.09307C5.0444 0.29878 6.03725 -0.0586487 7.1294 0.0207799C8.22154 0.100209 9.17469 0.596637 9.96897 1.52992L26.5298 20.7715C27.3638 21.7445 27.7411 22.7771 27.6617 23.8692C27.5823 24.9614 27.0858 25.9145 26.1526 26.7088C25.2391 27.5031 24.2264 27.8605 23.1343 27.7811C22.0421 27.7017 21.0691 27.1655 20.2351 26.1925L17.058 22.4991C15.7275 20.9701 14.2978 20.8509 12.7688 22.1814L7.44711 26.7287C6.47411 27.5627 5.42168 27.9201 4.26997 27.7811C3.11825 27.6421 2.1254 27.0662 1.23182 26.0535Z" fill="#4A154B"/>
<path d="M37.9477 27.6618C36.796 27.7015 35.7833 27.2448 34.8897 26.3313L29.985 21.3472C28.5751 19.8976 25.9341 16.8793 25.0803 16.0056C24.2264 15.1319 23.8094 14.1589 23.8293 13.0469C23.8491 11.9547 24.3058 10.942 25.2391 10.0485L34.3337 1.25174C35.2074 0.397881 36.2003 -0.0191192 37.2924 0.000737983C38.3846 0.0205951 39.3576 0.457452 40.2114 1.33117C41.0653 2.20488 41.4823 3.17788 41.4624 4.28988C41.4426 5.38203 41.0057 6.35503 40.132 7.20889L36.5577 10.6839C35.1081 12.0937 35.0883 13.5235 36.4981 14.9929L41.4028 19.977C42.2964 20.8905 42.7134 21.9429 42.6141 23.1145C42.5347 24.286 42.0184 25.3186 41.105 26.2122C40.1518 27.1455 39.0994 27.6419 37.9477 27.6618Z" fill="#4A154B"/>
</svg>
